<?xml version="1.0" encoding="UTF-8"?>
<svg xmlns="http://www.w3.org/2000/svg"
     width="740"
     height="163"
     viewBox="0 0 740 163"
     preserveAspectRatio="xMidYMid meet"
     role="img"
     aria-labelledby="title desc">
  <title id="title">Virune wordmark</title>
  <desc id="desc">The Virune symbol followed by the outlined Virune wordmark.</desc>
  <defs>
    <linearGradient id="viruneGradient" x1="0%" y1="0%" x2="100%" y2="100%">
      <stop offset="0%" stop-color="#655CFF"/>
      <stop offset="52%" stop-color="#5A54E8"/>
      <stop offset="100%" stop-color="#443DCE"/>
    </linearGradient>
  </defs>
  <g>
    <polygon points="9.000,11.750 74.250,39.500 90.750,71.750 63.000,59.000 41.250,53.000" fill="url(#viruneGradient)"/>
    <polygon points="36.000,53.000 63.000,60.500 96.000,81.500 109.500,104.750 109.500,150.500" fill="url(#viruneGradient)"/>
    <polygon points="219.750,11.750 155.250,38.750 118.500,104.750 118.500,150.500" fill="url(#viruneGradient)"/>
    <polygon points="114.750,50.750 126.000,56.750 126.000,70.250 114.750,77.000 102.750,70.250 102.750,56.750" fill="url(#viruneGradient)"/>
    <path d="M 253.848 134.000 L 282.101 134.000 L 335.683 28.513 L 311.826 28.513 L 287.130 79.421 C 282.033 90.251 276.777 102.485 270.977 116.577 C 269.776 102.485 268.507 90.523 266.808 79.421 L 258.380 28.513 L 234.364 28.513 L 253.848 134.000 Z M 330.815 134.000 L 352.043 134.000 L 365.139 54.839 L 343.910 54.839 L 330.815 134.000 Z M 356.212 44.508 C 362.601 44.508 368.673 39.682 369.670 33.610 C 370.667 27.584 366.272 22.690 359.837 22.690 C 353.471 22.690 347.376 27.584 346.379 33.610 C 345.383 39.682 349.846 44.508 356.212 44.508 Z M 370.180 134.000 L 391.409 134.000 L 398.840 88.959 C 400.471 79.127 408.763 72.398 418.528 72.398 C 421.496 72.398 425.529 72.828 427.523 73.463 L 430.695 54.499 C 428.792 54.069 426.095 53.774 423.898 53.774 C 415.062 53.774 406.838 58.872 402.465 68.659 L 401.604 68.659 L 403.802 54.839 L 383.275 54.839 L 370.180 134.000 Z M 456.395 134.997 C 468.448 134.997 477.511 128.766 483.877 117.574 L 481.408 134.000 L 501.504 134.000 L 514.599 54.839 L 493.302 54.839 L 485.712 100.650 C 484.013 111.276 476.514 117.212 467.655 117.212 C 458.661 117.212 454.288 111.276 455.920 101.511 L 463.623 54.839 L 442.394 54.839 L 434.034 105.181 C 430.998 123.805 440.060 134.997 456.395 134.997 Z M 548.300 88.823 C 550.000 78.424 557.431 71.627 566.992 71.627 C 575.352 71.627 580.087 76.725 578.388 86.626 L 570.526 134.000 L 591.778 134.000 L 599.979 84.360 C 603.106 65.827 593.681 53.842 576.621 53.842 C 565.157 53.842 556.729 59.438 550.566 69.928 L 552.696 54.839 L 532.736 54.839 L 519.550 134.000 L 540.801 134.000 L 548.300 88.823 Z M 646.433 135.699 C 664.989 135.699 679.217 126.569 684.382 112.748 L 665.328 110.211 C 662.655 116.147 655.994 119.704 647.996 119.704 C 636.532 119.704 632.839 112.839 632.839 103.777 C 632.839 102.848 632.839 101.851 632.907 100.786 C 668.025 99.880 687.146 94.352 687.146 76.589 C 687.146 62.202 674.617 53.502 657.897 53.502 C 631.072 53.502 612.381 76.725 612.381 103.414 C 612.381 123.669 625.340 135.699 646.433 135.699 Z M 635.105 87.985 C 637.937 78.424 644.032 69.498 655.700 69.498 C 662.927 69.498 667.390 72.624 667.390 77.631 C 667.390 84.927 661.160 87.487 635.105 87.985 Z" fill="url(#viruneGradient)" fill-rule="nonzero"/>
  </g>
</svg>
